<svg xmlns="http://www.w3.org/2000/svg" viewBox="0 0 559.45 625.44"><title>Recurso 1</title><g id="Capa_2" data-name="Capa 2"><g id="Capa_1-2" data-name="Capa 1"><path d="M451.26,0c-46.33,0-92.66.42-139,.42L285.49,26.56,259.93.42H115.58v51.8l88.87,88.12v29c0,43.95-22.87,78.48-71.8,79.55L55.77,172.68H1c0,49.51,19,85.51,50.21,106.59l.1.1L0,330.7l.08.14V625.44h55.6V411.06L149.6,539.52h11l96-128v214h55.59V351.36l55.7-56.12V208.48h83.39C595.72,208.48,595.3,0,451.26,0Zm-139,14.39V54L292.48,33.71ZM129.78,52.23h74.67v74ZM117.9,248.32c-37-3.6-57.22-24-61.32-60.77Zm-59.55,82.3H14.22L58.4,286.44,80.46,308.5Zm98,126.77L67.63,335.47l19.9-19.9,99.55,99.55Zm92.24-126.77L193,406.94,79.2,293.1c15.43,5.32,32.62,8,51.11,8,81.29,0,129.72-55.6,129.72-131.83l-.1-154.58,52.34,53.52v220L269.9,330.62Zm63.6,6.54v-6.54H284l35.38-35.38h34.36ZM451.26,157.52H367.87V53.07h83.39C522,53.07,522.44,157.52,451.26,157.52Z"/></g></g></svg>